<?xml version="1.0" encoding="utf-8"?>
<!-- Generator: Adobe Illustrator 21.0.0, SVG Export Plug-In . SVG Version: 6.00 Build 0)  -->
<svg version="1.1" id="레이어_1" xmlns="http://www.w3.org/2000/svg" xmlns:xlink="http://www.w3.org/1999/xlink" x="0px"
	 y="0px" viewBox="0 0 512 512" style="enable-background:new 0 0 512 512;" xml:space="preserve">
<style type="text/css">
	.st0{fill:#3877B5;}
	.st1{fill:url(#SVGID_1_);}
	.st2{fill:url(#SVGID_2_);}
	.st3{fill:url(#SVGID_3_);}
	.st4{fill:url(#SVGID_4_);}
</style>
<g>
	<polygon class="st0" points="105,209 95,264 67,288 43,288 56,209 24,209 8,303 82,303 127,264 136,209 	"/>
	<linearGradient id="SVGID_1_" gradientUnits="userSpaceOnUse" x1="0" y1="256" x2="512" y2="256">
		<stop  offset="0" style="stop-color:#362577"/>
		<stop  offset="0.2652" style="stop-color:#6569D7"/>
		<stop  offset="0.4958" style="stop-color:#85DCF5"/>
		<stop  offset="0.749" style="stop-color:#3B7BEA"/>
		<stop  offset="1" style="stop-color:#274F8A"/>
	</linearGradient>
	<polygon class="st1" points="105,209 95,264 67,288 43,288 56,209 24,209 8,303 82,303 127,264 136,209 	"/>
	<path class="st0" d="M172,209l-28,23l-11,71h30l6-32h47l-4,32h31l16-94H172z M219,256h-47l2-22c7-11,13-10,13-10h38L219,256z"/>
	<linearGradient id="SVGID_2_" gradientUnits="userSpaceOnUse" x1="0" y1="256" x2="512" y2="256">
		<stop  offset="0" style="stop-color:#362577"/>
		<stop  offset="0.2652" style="stop-color:#6569D7"/>
		<stop  offset="0.4958" style="stop-color:#85DCF5"/>
		<stop  offset="0.749" style="stop-color:#3B7BEA"/>
		<stop  offset="1" style="stop-color:#274F8A"/>
	</linearGradient>
	<path class="st2" d="M172,209l-28,23l-11,71h30l6-32h47l-4,32h31l16-94H172z M219,256h-47l2-22c7-11,13-10,13-10h38L219,256z"/>
	<path class="st0" d="M376,240l6-31h-88l-28,24l-12,70h111l1-15h-77l8-54c0,0,5-10,14-10h36l-2,16H376z"/>
	<linearGradient id="SVGID_3_" gradientUnits="userSpaceOnUse" x1="0" y1="256" x2="512" y2="256">
		<stop  offset="0" style="stop-color:#362577"/>
		<stop  offset="0.2652" style="stop-color:#6569D7"/>
		<stop  offset="0.4958" style="stop-color:#85DCF5"/>
		<stop  offset="0.749" style="stop-color:#3B7BEA"/>
		<stop  offset="1" style="stop-color:#274F8A"/>
	</linearGradient>
	<path class="st3" d="M376,240l6-31h-88l-28,24l-12,70h111l1-15h-77l8-54c0,0,5-10,14-10h36l-2,16H376z"/>
	<path class="st0" d="M389,233l-5,38h78v9c0,0-5,7-10,9h-70l-5,14h88l27-23c0,0,5-12,4-24h-79l3-20c0,0,4-11,13-12h37l-2,16h31l5-31
		h-86L389,233z"/>
	<linearGradient id="SVGID_4_" gradientUnits="userSpaceOnUse" x1="0" y1="256" x2="512" y2="256">
		<stop  offset="0" style="stop-color:#362577"/>
		<stop  offset="0.2652" style="stop-color:#6569D7"/>
		<stop  offset="0.4958" style="stop-color:#85DCF5"/>
		<stop  offset="0.749" style="stop-color:#3B7BEA"/>
		<stop  offset="1" style="stop-color:#274F8A"/>
	</linearGradient>
	<path class="st4" d="M389,233l-5,38h78v9c0,0-5,7-10,9h-70l-5,14h88l27-23c0,0,5-12,4-24h-79l3-20c0,0,4-11,13-12h37l-2,16h31l5-31
		h-86L389,233z"/>
</g>
</svg>
